<svg width="16" height="16" viewBox="0 0 128 128" xmlns="http://www.w3.org/2000/svg">
  <defs>
    <linearGradient id="bgGradient" x1="0%" y1="0%" x2="100%" y2="100%">
      <stop offset="0%" style="stop-color:#667eea;stop-opacity:1" />
      <stop offset="100%" style="stop-color:#764ba2;stop-opacity:1" />
    </linearGradient>
    <linearGradient id="heartGradient" x1="0%" y1="0%" x2="100%" y2="100%">
      <stop offset="0%" style="stop-color:#ff6b6b;stop-opacity:1" />
      <stop offset="100%" style="stop-color:#ee5a52;stop-opacity:1" />
    </linearGradient>
  </defs>
  
  <circle cx="64" cy="64" r="60" fill="url(#bgGradient)"/>
  
  <g transform="translate(32, 28)">
    <path d="M32 8 C48 8 56 16 56 32 C56 48 48 56 32 56 C16 56 8 48 8 32 C8 16 16 8 32 8 Z M32 16 C20 16 16 20 16 32 C16 44 20 48 32 48 C44 48 48 44 48 32 C48 20 44 16 32 16 Z" fill="white" opacity="0.9"/>
  </g>
  
  <g transform="translate(64, 72)">
    <path d="M16 6 C20 2 28 2 32 6 C36 2 44 2 48 6 C52 10 52 18 32 38 C12 18 12 10 16 6 Z" fill="url(#heartGradient)"/>
  </g>
</svg>