<svg width="128" height="128" viewBox="0 0 128 128" xmlns="http://www.w3.org/2000/svg">
  <defs>
    <linearGradient id="bgGradient" x1="0%" y1="0%" x2="100%" y2="100%">
      <stop offset="0%" style="stop-color:#667eea;stop-opacity:1" />
      <stop offset="100%" style="stop-color:#764ba2;stop-opacity:1" />
    </linearGradient>
    <linearGradient id="heartGradient" x1="0%" y1="0%" x2="100%" y2="100%">
      <stop offset="0%" style="stop-color:#ff6b6b;stop-opacity:1" />
      <stop offset="100%" style="stop-color:#ee5a52;stop-opacity:1" />
    </linearGradient>
    <filter id="shadow" x="-50%" y="-50%" width="200%" height="200%">
      <feDropShadow dx="2" dy="2" stdDeviation="3" flood-color="#000000" flood-opacity="0.3"/>
    </filter>
  </defs>
  
  <circle cx="64" cy="64" r="60" fill="url(#bgGradient)" filter="url(#shadow)"/>
  
  <g transform="translate(32, 28)">
    <path d="M32 8 C48 8 56 16 56 32 C56 48 48 56 32 56 C16 56 8 48 8 32 C8 16 16 8 32 8 Z M32 16 C20 16 16 20 16 32 C16 44 20 48 32 48 C44 48 48 44 48 32 C48 20 44 16 32 16 Z" fill="white" opacity="0.9"/>
    <circle cx="40" cy="40" r="6" fill="white" opacity="0.9"/>
  </g>
  
  <g transform="translate(64, 72)">
    <path d="M16 6 C20 2 28 2 32 6 C36 2 44 2 48 6 C52 10 52 18 32 38 C12 18 12 10 16 6 Z" fill="url(#heartGradient)" filter="url(#shadow)"/>
  </g>
  
  <g transform="translate(88, 32)" opacity="0.8">
    <circle cx="12" cy="12" r="8" fill="white"/>
    <circle cx="12" cy="12" r="4" fill="url(#bgGradient)"/>
    <g stroke="white" stroke-width="2" fill="none">
      <line x1="12" y1="0" x2="12" y2="4"/>
      <line x1="12" y1="20" x2="12" y2="24"/>
      <line x1="0" y1="12" x2="4" y2="12"/>
      <line x1="20" y1="12" x2="24" y2="12"/>
      <line x1="4.2" y1="4.2" x2="6.8" y2="6.8"/>
      <line x1="17.2" y1="17.2" x2="19.8" y2="19.8"/>
      <line x1="19.8" y1="4.2" x2="17.2" y2="6.8"/>
      <line x1="6.8" y1="17.2" x2="4.2" y2="19.8"/>
    </g>
  </g>
  
  <circle cx="24" cy="24" r="2" fill="white" opacity="0.6"/>
  <circle cx="104" cy="104" r="2" fill="white" opacity="0.6"/>
  <circle cx="20" cy="100" r="1.5" fill="white" opacity="0.4"/>
  <circle cx="108" cy="20" r="1.5" fill="white" opacity="0.4"/>
</svg>